<svg id="Capa_1" enable-background="new 0 0 512 512" height="512" viewBox="0 0 512 512" width="512" xmlns="http://www.w3.org/2000/svg"><g><path d="m231.661 445.741-127.061 16.709c-63.43-46.6-104.6-121.72-104.6-206.45 0-41.06 9.67-79.85 26.85-114.24 11.96-23.95 27.56-45.75 46.07-64.7 46.48-47.54 111.34-77.06 183.08-77.06 141.38 0 256 114.62 256 256 0 119.47-81.85 219.84-192.53 248.07z" fill="#6bbef6"/><path d="m128.483 187.973c-16.631-47.794-85.1-101.773-85.1-101.773l76.495-76.495c10.391-10.391 26.385-12.696 39.287-5.661l190.886 104.077 46.132 25.151c95.203 51.906 117.655 179.903 44.151 259.622-1.596 1.731-3.234 3.437-4.914 5.117l-80.691 80.691-134.863-127.472" fill="#da387d"/><path d="m256 512c-56.65 0-109-18.4-151.4-49.55-55.99-67.59-52.34-167.98 10.98-231.29l-85.15-85.15c-1.34-1.34-2.54-2.76-3.58-4.25-9.22-12.94-8.02-31 3.58-42.6l12.95-12.96c7.88-7.88 19-11.12 29.54-9.14 3.35.63 6.64 1.78 9.75 3.48l190.89 104.08 46.06 25.11c95.59 52.12 117.79 180.85 43.49 260.44-1.36 1.47-2.76 2.91-4.18 4.33-11.99 11.99-25.3 21.85-39.46 29.57-20.3 5.18-41.56 7.93-63.47 7.93z" fill="#dd5790"/><circle cx="235.037" cy="354.975" fill="#da387d" r="123.047"/><path d="m148.029 441.982c-48.052-48.052-48.052-125.954 0-174.005 2.323-2.323 4.724-4.539 7.179-6.638-41.305 48.345-39.09 121.098 6.638 166.827s118.489 47.951 166.834 6.646c-2.1 2.455-4.315 4.855-6.638 7.179-48.051 48.051-125.961 48.043-174.013-.009z" fill="#d80a61"/><circle cx="235.037" cy="354.975" fill="#dd5790" r="45.321"/><path d="m208.89 131.068 85.372 46.837c4.59 2.518 10.291 1.704 13.993-1.998l38.278-38.278c5.551-5.551 4.22-14.878-2.663-18.654l-85.372-46.837c-4.59-2.518-10.291-1.704-13.993 1.998l-38.278 38.278c-5.552 5.551-4.22 14.878 2.663 18.654z" fill="#26457d"/><g fill="#e4f6ff"><path d="m288.212 51.758 2.129.144c7.51.508 14.131-4.886 15.152-12.344l3.139-22.94c1.124-8.217-4.945-15.667-13.22-16.227l-5.291-.358c-8.275-.56-15.292 6.006-15.284 14.299l.022 23.154c.008 7.528 5.842 13.764 13.353 14.272z"/><path d="m346.592 68.189 1.772 1.189c6.25 4.195 14.681 2.834 19.294-3.114l14.189-18.297c5.082-6.554 3.551-16.041-3.335-20.663l-4.403-2.956c-6.886-4.622-16.246-2.445-20.386 4.742l-11.558 20.063c-3.757 6.522-1.823 14.841 4.427 19.036z"/><path d="m384.748 115.266.94 1.916c3.315 6.758 11.297 9.795 18.266 6.95l21.436-8.751c7.678-3.135 11.096-12.116 7.443-19.562l-2.336-4.761c-3.653-7.446-12.847-10.24-20.026-6.087l-20.041 11.596c-6.514 3.77-8.998 11.941-5.682 18.699z"/></g></g></svg>